<svg id="Component_1_69" data-name="Component 1 – 69" xmlns="http://www.w3.org/2000/svg" width="38" height="46.132" viewBox="0 0 38 46.132">
  <g id="Icon_ionic-ios-notifications-outline" data-name="Icon ionic-ios-notifications-outline" transform="translate(0 4.551)">
    <path id="Path_9" data-name="Path 9" d="M23.079,28.336a1.346,1.346,0,0,0-1.32,1.06,2.6,2.6,0,0,1-.52,1.133,1.964,1.964,0,0,1-1.673.613,2,2,0,0,1-1.673-.613,2.6,2.6,0,0,1-.52-1.133,1.346,1.346,0,0,0-1.32-1.06h0a1.355,1.355,0,0,0-1.32,1.652,4.644,4.644,0,0,0,4.833,3.856A4.635,4.635,0,0,0,24.4,29.988a1.36,1.36,0,0,0-1.32-1.652Z" transform="translate(-2.986 7.737)"/>
    <path id="Path_10" data-name="Path 10" d="M39.579,34.724c-1.6-2.11-4.749-3.346-4.749-12.793,0-9.7-4.282-13.594-8.273-14.529-.374-.094-.644-.218-.644-.613v-.3A2.549,2.549,0,0,0,23.418,3.93h-.062a2.549,2.549,0,0,0-2.494,2.557v.3c0,.385-.27.52-.644.613-4,.946-8.273,4.833-8.273,14.529C11.945,31.377,8.8,32.6,7.2,34.724a2.063,2.063,0,0,0,1.652,3.3h29.11A2.064,2.064,0,0,0,39.579,34.724Zm-4.053.6H11.29a.456.456,0,0,1-.343-.759A12.59,12.59,0,0,0,13.13,31.1a23.551,23.551,0,0,0,1.486-9.166c0-3.876.727-6.911,2.172-9.021a6.668,6.668,0,0,1,4.022-2.868A3.642,3.642,0,0,0,22.743,8.95a.822.822,0,0,1,1.237-.021,3.765,3.765,0,0,0,1.954,1.112,6.668,6.668,0,0,1,4.022,2.868c1.445,2.11,2.172,5.144,2.172,9.021A23.551,23.551,0,0,0,33.614,31.1a12.734,12.734,0,0,0,2.234,3.523A.43.43,0,0,1,35.526,35.326Z" transform="translate(-6.775 -3.93)"/>
  </g>
  <g id="Ellipse_5" data-name="Ellipse 5" transform="translate(14 1)" fill="#4267b2" stroke="#fff" stroke-width="1">
    <circle cx="12" cy="12" r="12" stroke="none"/>
    <circle cx="12" cy="12" r="11.5" fill="none"/>
  </g>
  <text id="_10" data-name="10" transform="translate(17 18)" fill="#fff" font-size="14" font-family="Cairo-Regular, Cairo"><tspan x="0" y="0">10</tspan></text>
</svg>
