<!-- Generated by IcoMoon.io -->
<svg version="1.1" xmlns="http://www.w3.org/2000/svg" width="1024" height="1024" viewBox="0 0 1024 1024">
<title></title>
<g id="icomoon-ignore">
</g>
<path  fill="#4267B2" d="M846.183 420.811l-83.19-83.19-361.347 361.398 83.378 83.378 361.159-361.586zM868.797 398.17l55.334-55.399c12.479-12.494 12.387-32.803-0.153-45.309l-37.754-37.65c-12.564-12.529-32.807-12.627-45.33-0.102l-55.274 55.282 83.178 83.178zM380.919 723.546l-20.465 99.606 100.317-19.755-79.851-79.851zM704 608v319.885c0 35.643-28.617 64.115-63.918 64.115h-480.165c-35.408 0-63.918-28.705-63.918-64.115v-671.77c0-35.643 28.617-64.115 63.918-64.115h32.083c0.084-35.479 28.745-64 64.088-64h31.912c0.029-53.18 43.131-96 96.296-96h31.408c53.089 0 96.267 42.976 96.296 96h31.912c35.443 0 64.004 28.639 64.088 64v0h32.083c35.408 0 63.918 28.705 63.918 64.115v95.885l114.563-114.563c25.366-25.366 65.641-25.232 90.565-0.309l37.744 37.744c24.846 24.846 24.785 65.471-0.309 90.565l-242.563 242.563zM672 384v-127.902c0-17.727-14.551-32.098-31.999-32.098h-32.001c-0.084 35.479-28.745 64-64.088 64h-287.823c-35.443 0-64.004-28.639-64.088-64h-32.001c-17.672 0-31.999 14.045-31.999 32.098v671.803c0 17.727 14.551 32.098 31.999 32.098h480.003c17.672 0 31.999-14.045 31.999-32.098v-287.902l-192 192-160 32 32-160 320-320zM320 160h-64.142c-17.595 0-31.858 14.165-31.858 31.967v32.067c0 17.655 14.235 31.967 31.858 31.967h288.283c17.595 0 31.858-14.165 31.858-31.967v-32.067c0-17.655-14.235-31.967-31.858-31.967h-64.142v-32.067c0-35.309-28.605-63.933-64.156-63.933h-31.688c-35.432 0-64.156 28.744-64.156 63.933v32.067zM400 160c8.837 0 16-7.163 16-16s-7.163-16-16-16c-8.837 0-16 7.163-16 16s7.163 16 16 16v0 0z"></path>
</svg>
