<svg id="Component_8_22" data-name="Component 8 – 22" xmlns="http://www.w3.org/2000/svg" xmlns:xlink="http://www.w3.org/1999/xlink" width="103" height="36" viewBox="0 0 103 36">
  <defs>
    <clipPath id="clip-path">
      <rect id="Rectangle_284" data-name="Rectangle 284" width="62" height="16" transform="translate(207 196)" fill="none" stroke="rgba(0,0,0,0)" stroke-width="1"/>
    </clipPath>
  </defs>
  <g id="Rectangle_156" data-name="Rectangle 156" fill="none" stroke="#4267b2" stroke-width="1">
    <rect width="103" height="36" rx="3" stroke="none"/>
    <rect x="0.5" y="0.5" width="102" height="35" rx="2.5" fill="none"/>
  </g>
  <g id="Group_154" data-name="Group 154" transform="translate(-197 -184)">
    <g id="Mask_Group_40" data-name="Mask Group 40" transform="translate(0 -2)" clip-path="url(#clip-path)">
      <text id="تصفية_بـ" data-name="تصفية بـ" transform="translate(268 208)" fill="#4267b2" font-size="16" font-family="Cairo-Bold, Cairo" font-weight="700"><tspan x="-60" y="0">تصفية بـ</tspan></text>
    </g>
    <path id="Icon_awesome-filter" data-name="Icon awesome-filter" d="M15.249,0H.751a.751.751,0,0,0-.53,1.28L6,7.061V13.5a.75.75,0,0,0,.32.614l2.5,1.749A.75.75,0,0,0,10,15.249V7.061l5.78-5.78A.751.751,0,0,0,15.249,0Z" transform="translate(273.999 194)" fill="#4267b2"/>
  </g>
</svg>
