<?xml version="1.0" encoding="UTF-8"?>
<!DOCTYPE svg PUBLIC "-//W3C//DTD SVG 1.1//EN" "http://www.w3.org/Graphics/SVG/1.1/DTD/svg11.dtd">
<svg xmlns="http://www.w3.org/2000/svg" version="1.1" width="290px" height="290px" style="shape-rendering:geometricPrecision; text-rendering:geometricPrecision; image-rendering:optimizeQuality; fill-rule:evenodd; clip-rule:evenodd" xmlns:xlink="http://www.w3.org/1999/xlink">
<g><path style="opacity:0.884" fill="#fbfdfd" d="M 137.5,17.5 C 188.684,17.3325 227.85,38.6658 255,81.5C 280.525,132.093 276.525,180.093 243,225.5C 207.21,265.427 163.043,279.26 110.5,267C 54.935,248.423 24.1017,209.923 18,151.5C 17.257,98.9615 39.4237,59.4615 84.5,33C 101.34,24.5452 119.006,19.3785 137.5,17.5 Z"/></g>
<g><path style="opacity:1" fill="#1997a5" d="M 133.5,23.5 C 188.656,21.8998 229.156,45.2331 255,93.5C 274.741,142.445 267.741,187.111 234,227.5C 196.79,263.677 153.29,274.177 103.5,259C 57.2134,240.294 30.7134,206.127 24,156.5C 21.0851,105.834 40.9184,67.0007 83.5,40C 99.2047,31.1535 115.871,25.6535 133.5,23.5 Z"/></g>
<g><path style="opacity:1" fill="#ea3c25" d="M 135.5,67.5 C 168.571,64.8698 193.904,77.3698 211.5,105C 187.5,119 163.5,133 139.5,147C 162.963,160.3 186.296,173.8 209.5,187.5C 190.534,214.8 164.534,225.3 131.5,219C 100.921,215.754 83.4206,198.92 79,168.5C 75.3581,149.409 75.6915,130.409 80,111.5C 88.5948,92.9069 102.428,79.7402 121.5,72C 126.311,70.5519 130.977,69.0519 135.5,67.5 Z"/></g>
</svg>
