<svg xmlns="http://www.w3.org/2000/svg" width="14.985" height="15" viewBox="0 0 14.985 15">
  <path id="editalt" d="M14.063,15H2.813a.913.913,0,0,1-.659-.271.894.894,0,0,1-.278-.667V8.789l4.087,4.072a.8.8,0,0,0,.674.249h1.8A.913.913,0,0,0,9.1,12.84a.894.894,0,0,0,.278-.667v-1.86a.807.807,0,0,0-.278-.6L1.875,2.49V.952A.9.9,0,0,1,2.153.285.911.911,0,0,1,2.813.015H9.375V5.171a.463.463,0,0,0,.132.33.444.444,0,0,0,.337.139h5.142v8.423a.907.907,0,0,1-.271.667A.887.887,0,0,1,14.063,15ZM10.313,0a.877.877,0,0,1,.645.264l3.75,3.765a.918.918,0,0,1,.278.674H10.313ZM1.157,6.5l-1-.981A.588.588,0,0,1,0,5.113a.538.538,0,0,1,.161-.4l.806-.806a.547.547,0,0,1,.4-.161.547.547,0,0,1,.4.161l.981.981Zm7.28,4.263V11.7a.444.444,0,0,1-.139.337.461.461,0,0,1-.33.132H7.031a.554.554,0,0,1-.381-.161L1.9,7.266,3.515,5.655,8.262,10.4a.519.519,0,0,1,.176.366Z" fill="#4267b2"/>
</svg>
