<svg id="Gears" xmlns="http://www.w3.org/2000/svg" width="27.002" height="27.002" viewBox="0 0 27.002 27.002">
  <g id="Group_248" data-name="Group 248" transform="translate(5.68 5.68)">
    <g id="Group_247" data-name="Group 247">
      <path id="Path_96" data-name="Path 96" d="M116.194,235.69a.686.686,0,0,1-.686-.686,3.213,3.213,0,1,0-3.213,3.214.686.686,0,1,1,0,1.371A4.585,4.585,0,1,1,116.88,235,.686.686,0,0,1,116.194,235.69Z" transform="translate(-107.71 -230.42)" fill="#4267b2"/>
    </g>
  </g>
  <g id="Group_250" data-name="Group 250" transform="translate(0 0)">
    <g id="Group_249" data-name="Group 249" transform="translate(0)">
      <path id="Path_97" data-name="Path 97" d="M19.611,148.721a.686.686,0,0,1-.794.557l-1.435-.252a.686.686,0,0,1-.544-.5,6.766,6.766,0,0,0-.673-1.623.685.685,0,0,1,.033-.738l.837-1.193a.418.418,0,0,0-.046-.536l-.861-.861a.418.418,0,0,0-.536-.047l-1.193.837a.686.686,0,0,1-.738.033,6.759,6.759,0,0,0-1.623-.673.686.686,0,0,1-.5-.544l-.255-1.433a.418.418,0,0,0-.412-.346H9.656a.418.418,0,0,0-.412.346l-.252,1.434a.686.686,0,0,1-.5.544,6.77,6.77,0,0,0-1.623.673.686.686,0,0,1-.738-.033l-1.191-.837a.418.418,0,0,0-.536.046l-.861.861a.418.418,0,0,0-.047.536l.837,1.193a.686.686,0,0,1,.033.738,6.751,6.751,0,0,0-.673,1.623.686.686,0,0,1-.544.5l-1.434.252a.418.418,0,0,0-.346.411v1.218a.418.418,0,0,0,.346.412l1.434.252a.686.686,0,0,1,.544.5,6.752,6.752,0,0,0,.673,1.624.686.686,0,0,1-.033.738L3.5,155.62a.418.418,0,0,0,.046.536l.861.861a.418.418,0,0,0,.536.046l1.193-.837a.686.686,0,0,1,.738-.033,6.765,6.765,0,0,0,1.623.673.686.686,0,0,1,.5.544l.252,1.434a.686.686,0,1,1-1.351.237l-.178-1.018a8.135,8.135,0,0,1-1.139-.475l-.846.594a1.786,1.786,0,0,1-2.293-.2l-.864-.858a1.787,1.787,0,0,1-.2-2.293l.594-.846a8.124,8.124,0,0,1-.475-1.139l-1.018-.178A1.787,1.787,0,0,1,0,150.907v-1.218a1.787,1.787,0,0,1,1.48-1.763l1.018-.179a8.12,8.12,0,0,1,.475-1.139l-.6-.846a1.787,1.787,0,0,1,.2-2.293l.861-.861a1.787,1.787,0,0,1,2.293-.2l.844.594a8.142,8.142,0,0,1,1.139-.475l.178-1.018a1.787,1.787,0,0,1,1.765-1.478h1.218a1.787,1.787,0,0,1,1.763,1.48l.179,1.018a8.131,8.131,0,0,1,1.139.475l.847-.594a1.787,1.787,0,0,1,2.293.2l.861.861a1.787,1.787,0,0,1,.2,2.293l-.593.844a8.141,8.141,0,0,1,.475,1.139l1.018.179A.686.686,0,0,1,19.611,148.721Z" transform="translate(0 -140.033)" fill="#4267b2"/>
    </g>
  </g>
  <path id="Subtraction_1" data-name="Subtraction 1" d="M8.716,16.473H7.755a1.551,1.551,0,0,1-1.532-1.287L6.1,14.468a6.643,6.643,0,0,1-.757-.316l-.6.421A1.553,1.553,0,0,1,2.751,14.4l-.679-.679a1.551,1.551,0,0,1-.174-2l.418-.6A6.568,6.568,0,0,1,2,10.373l-.715-.124A1.55,1.55,0,0,1,0,8.717V7.758A1.549,1.549,0,0,1,1.286,6.225L2,6.1a6.408,6.408,0,0,1,.316-.756l-.419-.6a1.553,1.553,0,0,1,.172-1.993l.679-.678A1.553,1.553,0,0,1,4.745,1.9l.6.419A6.568,6.568,0,0,1,6.1,2l.126-.717A1.552,1.552,0,0,1,7.756,0h.961a1.55,1.55,0,0,1,1.53,1.289l.126.716a6.568,6.568,0,0,1,.756.317l.595-.421a1.553,1.553,0,0,1,2,.175l.679.679a1.551,1.551,0,0,1,.174,1.993l-.419.6a6.594,6.594,0,0,1,.317.757l.717.126a1.551,1.551,0,0,1,1.284,1.53v.959a1.55,1.55,0,0,1-1.287,1.532l-.717.126a6.652,6.652,0,0,1-.317.757l.422.594A1.55,1.55,0,0,1,14.4,13.72l-.679.68a1.553,1.553,0,0,1-2,.174l-.6-.418a6.51,6.51,0,0,1-.757.316l-.123.715A1.551,1.551,0,0,1,8.716,16.473ZM8.235,4.478a3.759,3.759,0,1,0,3.759,3.758A3.77,3.77,0,0,0,8.235,4.478Zm0,5.947a2.187,2.187,0,1,1,2.186-2.189,2.192,2.192,0,0,1-2.186,2.189h0Z" transform="translate(10.531 10.529)" fill="#4267b2"/>
</svg>
