<svg xmlns="http://www.w3.org/2000/svg" width="57.407" height="58.76" viewBox="0 0 57.407 58.76">
  <path  id="pin-note" d="M57.145,7.579,49.824.257c-.623-.623-1.611.021-1.907.568-.049.094.039.178-.041.812a9.576,9.576,0,0,1-.565,2.349L44.056,7.243c-1.3,1.3-3.159.722-4.744-.067-.334-.165-.765-.533-1.134-.162L36.8,8.393a.517.517,0,0,0,0,.731L48.368,20.7a.518.518,0,0,0,.733,0l1.379-1.379c.366-.366-.1-.842-.294-1.239-.7-1.46-1.336-3.405-.162-4.581l3.4-3.4a17.41,17.41,0,0,1,2.355-.535c.641-.1.72-.022.812-.082C57.15,9.12,57.772,8.206,57.145,7.579Zm-42.272,3.7-9.565,10.1h9.565ZM0,23.3a1.611,1.611,0,0,1,.046-.381,1.581,1.581,0,0,1,.432-1.031L15.028,6.517a1.588,1.588,0,0,1,1.392-.822H34.435l-.169.17a4.085,4.085,0,0,0-1.2,2.893l0,.117H18.052v14.1a1.59,1.59,0,0,1-1.59,1.59H3.18V55.581H49.043V24.413a4.076,4.076,0,0,0,2.587-1.188l.592-.592V55.6a3.165,3.165,0,0,1-3.161,3.162H3.161A3.173,3.173,0,0,1,0,55.6Zm38.006,9.288a1.582,1.582,0,1,1,0,3.164H14.216a1.582,1.582,0,1,1,0-3.164Zm0,10.672a1.582,1.582,0,1,1,0,3.164H14.216a1.582,1.582,0,1,1,0-3.164Zm4.488-25.7-2.635-2.635L31.4,25.618l.4.4,10.7-8.457Z" transform="translate(0 -0.001)" fill="#4267b2" fill-rule="evenodd"/>
</svg>
