<svg xmlns="http://www.w3.org/2000/svg" width="31.822" height="32.572" viewBox="0 0 31.822 32.572">
  <path id="pin-note" d="M31.677,4.2,27.619.143c-.346-.346-.893.011-1.057.315-.027.052.022.1-.023.45a5.308,5.308,0,0,1-.313,1.3l-1.8,1.8c-.72.72-1.751.4-2.63-.037-.185-.092-.424-.3-.629-.09l-.764.764a.287.287,0,0,0,0,.405l6.413,6.414a.287.287,0,0,0,.406,0l.764-.764c.2-.2-.056-.467-.163-.687-.391-.81-.741-1.888-.09-2.539L29.614,5.6a9.651,9.651,0,0,1,1.305-.3c.355-.055.4-.012.45-.045C31.68,5.056,32.024,4.549,31.677,4.2ZM8.245,6.254l-5.3,5.6h5.3ZM0,12.917a.893.893,0,0,1,.025-.211.877.877,0,0,1,.239-.572L8.33,3.613A.88.88,0,0,1,9.1,3.158h9.986l-.094.094a2.264,2.264,0,0,0-.664,1.6V4.92H10.007v7.816a.881.881,0,0,1-.881.881H1.763V30.81H27.186V13.533a2.259,2.259,0,0,0,1.434-.659l.328-.328V30.82A1.755,1.755,0,0,1,27.2,32.573H1.752A1.759,1.759,0,0,1,0,30.82Zm21.068,5.149a.877.877,0,1,1,0,1.754H7.88a.877.877,0,1,1,0-1.754Zm0,5.916a.877.877,0,1,1,0,1.754H7.88a.877.877,0,1,1,0-1.754ZM23.556,9.734,22.095,8.273,17.407,14.2l.22.221,5.928-4.688Z" transform="translate(0 -0.001)" fill="#4267b2" fill-rule="evenodd"/>
</svg>
