<svg xmlns="http://www.w3.org/2000/svg" width="58.249" height="58.25" viewBox="0 0 58.249 58.25">
  <g id="svgexport-6_1_" data-name="svgexport-6 (1)" transform="translate(-0.007)">
    <g id="Group_285" data-name="Group 285" transform="translate(0.007)">
      <g id="Group_284" data-name="Group 284" transform="translate(0)">
        <path id="Path_125" data-name="Path 125" d="M47.108,16.923a1.138,1.138,0,0,0,1.138-1.138V3.413A3.417,3.417,0,0,0,44.833,0H3.42A3.417,3.417,0,0,0,.007,3.413V54.837A3.417,3.417,0,0,0,3.42,58.25H44.833a3.417,3.417,0,0,0,3.413-3.413V46.456a1.138,1.138,0,0,0-2.275,0v8.382a1.139,1.139,0,0,1-1.138,1.138H3.42a1.139,1.139,0,0,1-1.138-1.138V3.413A1.139,1.139,0,0,1,3.42,2.275H44.833A1.139,1.139,0,0,1,45.97,3.413V15.786A1.138,1.138,0,0,0,47.108,16.923Z" transform="translate(-0.007)" fill="#4267b2"/>
      </g>
    </g>
    <g id="Group_287" data-name="Group 287" transform="translate(13.659 6.144)">
      <g id="Group_286" data-name="Group 286">
        <path id="Path_126" data-name="Path 126" d="M130.474,54a10.462,10.462,0,0,0-7.181,18.075,1.125,1.125,0,0,0,.122.114,10.447,10.447,0,0,0,14.117,0,1.139,1.139,0,0,0,.122-.114A10.462,10.462,0,0,0,130.474,54Zm0,18.658a8.148,8.148,0,0,1-4.948-1.669,5.688,5.688,0,0,1,9.9,0A8.148,8.148,0,0,1,130.474,72.658Zm-1.82-8.647v-.74a1.82,1.82,0,0,1,3.641,0v.74a1.82,1.82,0,1,1-3.641,0Zm8.412,5.311a7.893,7.893,0,0,0-3.352-2.81,4.074,4.074,0,0,0,.856-2.5v-.74a4.1,4.1,0,0,0-8.191,0v.74a4.074,4.074,0,0,0,.856,2.5,7.893,7.893,0,0,0-3.352,2.81,8.191,8.191,0,1,1,13.184,0Z" transform="translate(-120.007 -54)" fill="#4267b2"/>
      </g>
    </g>
    <g id="Group_289" data-name="Group 289" transform="translate(22.989 49.831)">
      <g id="Group_288" data-name="Group 288">
        <path id="Path_127" data-name="Path 127" d="M209.288,438h-6.144a1.138,1.138,0,1,0,0,2.275h6.144a1.138,1.138,0,1,0,0-2.275Z" transform="translate(-202.007 -438)" fill="#4267b2"/>
      </g>
    </g>
    <g id="Group_291" data-name="Group 291" transform="translate(12.977 43.46)">
      <g id="Group_290" data-name="Group 290">
        <path id="Path_128" data-name="Path 128" d="M131.3,382H115.145a1.138,1.138,0,0,0,0,2.275H131.3a1.138,1.138,0,1,0,0-2.275Z" transform="translate(-114.007 -382)" fill="#4267b2"/>
      </g>
    </g>
    <g id="Group_293" data-name="Group 293" transform="translate(12.977 37.089)">
      <g id="Group_292" data-name="Group 292">
        <path id="Path_129" data-name="Path 129" d="M131.3,326H115.145a1.138,1.138,0,0,0,0,2.275H131.3a1.138,1.138,0,1,0,0-2.275Z" transform="translate(-114.007 -326)" fill="#4267b2"/>
      </g>
    </g>
    <g id="Group_295" data-name="Group 295" transform="translate(8.117 30.718)">
      <g id="Group_294" data-name="Group 294">
        <path id="Path_130" data-name="Path 130" d="M73.23,270.333a1.137,1.137,0,1,0,.333.8A1.147,1.147,0,0,0,73.23,270.333Z" transform="translate(-71.287 -270)" fill="#4267b2"/>
      </g>
    </g>
    <g id="Group_297" data-name="Group 297" transform="translate(8.117 37.089)">
      <g id="Group_296" data-name="Group 296">
        <path id="Path_131" data-name="Path 131" d="M73.23,326.333a1.137,1.137,0,1,0,.333.8A1.149,1.149,0,0,0,73.23,326.333Z" transform="translate(-71.287 -326)" fill="#4267b2"/>
      </g>
    </g>
    <g id="Group_299" data-name="Group 299" transform="translate(8.117 43.46)">
      <g id="Group_298" data-name="Group 298">
        <path id="Path_132" data-name="Path 132" d="M73.23,382.333a1.137,1.137,0,1,0,.333.8A1.149,1.149,0,0,0,73.23,382.333Z" transform="translate(-71.287 -382)" fill="#4267b2"/>
      </g>
    </g>
    <g id="Group_301" data-name="Group 301" transform="translate(12.977 30.718)">
      <g id="Group_300" data-name="Group 300">
        <path id="Path_133" data-name="Path 133" d="M131.3,270H115.145a1.138,1.138,0,0,0,0,2.275H131.3a1.138,1.138,0,1,0,0-2.275Z" transform="translate(-114.007 -270)" fill="#4267b2"/>
      </g>
    </g>
    <g id="Group_303" data-name="Group 303" transform="translate(33.863 14.184)">
      <g id="Group_302" data-name="Group 302">
        <path id="Path_134" data-name="Path 134" d="M319.594,125.317a4.778,4.778,0,0,0-6.527,1.749l-14.317,24.8a1.14,1.14,0,0,0-.145.443l-1.008,9.027a1.138,1.138,0,0,0,1.805,1.042l7.314-5.386a1.136,1.136,0,0,0,.311-.347l14.317-24.8A4.784,4.784,0,0,0,319.594,125.317ZM300.146,159l.526-4.714,3.293,1.9Zm5.478-4.482-4.335-2.5,11.489-19.9,4.335,2.5Zm13.748-23.812-1.121,1.942-4.335-2.5,1.121-1.942a2.5,2.5,0,0,1,4.335,2.5Z" transform="translate(-297.589 -124.675)" fill="#4267b2"/>
      </g>
    </g>
  </g>
</svg>
