<svg xmlns="http://www.w3.org/2000/svg" width="29.635" height="30.478" viewBox="0 0 29.635 30.478">
  <path id="privacy" d="M13.815,0c5.171,3.278,9.842,4.828,13.852,4.462a38,38,0,0,1-1.019,11.586,5.638,5.638,0,0,0-1.886-.417,32.533,32.533,0,0,0,.787-9.516c-3.394.311-7.349-1-11.726-3.778a16.765,16.765,0,0,1-11.681,3.6c-.177,6.73,1.006,11.8,3.29,15.483C7.121,20,10,20.216,11.359,18.344c.1-.145.143-.223.142-.286,0-.033-1.478-1.845-1.61-2.056-.348-.553-1-1.3-1-1.953a1.046,1.046,0,0,1,.7-.95c-.032-.549-.054-1.105-.054-1.657,0-.326.006-.655.018-.978a2.3,2.3,0,0,1,.11-.492A3.483,3.483,0,0,1,11.222,8a4.347,4.347,0,0,1,.844-.4c.533-.195.275-1.037.86-1.05a7.674,7.674,0,0,1,4.5,2.111,3.191,3.191,0,0,1,.9,2.137l-.055,2.4a.786.786,0,0,1,.575.493c.187.756-.6,1.7-.963,2.3-.336.555-1.622,2.07-1.623,2.083a.48.48,0,0,0,.115.279,4.93,4.93,0,0,0,2.577,1.622,6.048,6.048,0,0,0-.21,1.234,2.172,2.172,0,0,0-.292.245l-.006.006a2.21,2.21,0,0,0-.65,1.563v5.545a22.175,22.175,0,0,1-3.916,1.92C4.919,27.211-.376,19.207.017,4.247A19.8,19.8,0,0,0,13.815,0ZM20.1,22.347h.231v-.711a4.415,4.415,0,0,1,1.223-3.058,4.07,4.07,0,0,1,5.936,0,4.412,4.412,0,0,1,1.223,3.058v.711h.231a.686.686,0,0,1,.684.684v6.762a.686.686,0,0,1-.684.684H20.1a.685.685,0,0,1-.684-.684V23.032A.685.685,0,0,1,20.1,22.347Zm3.88,4.373-.712,1.865h2.507l-.659-1.891a1.3,1.3,0,1,0-1.136.026Zm-2.355-4.373h5.793v-.711a3.117,3.117,0,0,0-.859-2.162,2.784,2.784,0,0,0-4.075,0,3.115,3.115,0,0,0-.859,2.162v.711Z" transform="translate(0.003)" fill="#4267b2" fill-rule="evenodd"/>
</svg>
