<svg xmlns="http://www.w3.org/2000/svg" width="30.681" height="27.82" viewBox="0 0 30.681 27.82">
  <g id="svgexport-6_8_" data-name="svgexport-6 (8)" transform="translate(0.25 -23.839)">
    <g id="Group_3190" data-name="Group 3190" transform="translate(0 24.089)">
      <g id="Group_3189" data-name="Group 3189">
        <path id="Path_234" data-name="Path 234" d="M88.056,161.014a.441.441,0,0,0-.441-.441H75.321a.441.441,0,1,0,0,.883H87.615A.441.441,0,0,0,88.056,161.014Z" transform="translate(-70.473 -152.54)" fill="#4267b2" stroke="#4267b2" stroke-width="0.5"/>
        <path id="Path_235" data-name="Path 235" d="M85.535,229.5H75.321a.441.441,0,1,0,0,.883H85.535a.441.441,0,0,0,0-.883Z" transform="translate(-70.473 -217.406)" fill="#4267b2" stroke="#4267b2" stroke-width="0.5"/>
        <path id="Path_236" data-name="Path 236" d="M85.535,298.419H75.321a.441.441,0,1,0,0,.883H85.535a.441.441,0,0,0,0-.883Z" transform="translate(-70.473 -282.272)" fill="#4267b2" stroke="#4267b2" stroke-width="0.5"/>
        <path id="Path_237" data-name="Path 237" d="M301.5,35.318a6.248,6.248,0,0,1-2.336-4.885v-.523a3.852,3.852,0,0,0-2.023-3.387v-.607a1.827,1.827,0,0,0-3.653,0v.607a3.853,3.853,0,0,0-2.023,3.387v.523a6.248,6.248,0,0,1-2.336,4.885,1.022,1.022,0,0,0,.638,1.821h2.822a2.867,2.867,0,0,0,5.45,0h2.822a1.022,1.022,0,0,0,.638-1.821Zm-7.129-9.4a.944.944,0,1,1,1.887,0v.262a3.85,3.85,0,0,0-1.887,0Zm.944,12.316a1.985,1.985,0,0,1-1.773-1.093h3.546A1.985,1.985,0,0,1,295.313,38.232Z" transform="translate(-271.748 -24.089)" fill="#4267b2" stroke="#4267b2" stroke-width="0.5"/>
        <path id="Path_238" data-name="Path 238" d="M26.227,87.164a.441.441,0,0,0-.441.441v3.778a2.652,2.652,0,0,1-2.649,2.649H9.749a1.437,1.437,0,0,0-.994.4L3.978,98.964l.7-3.907a.87.87,0,0,0-.857-1.025H3.532A2.652,2.652,0,0,1,.883,91.383V79.318a2.652,2.652,0,0,1,2.649-2.649h15.35a.441.441,0,1,0,0-.883H3.532A3.536,3.536,0,0,0,0,79.318V91.383a3.536,3.536,0,0,0,3.532,3.532H3.81l-.759,4.214a.776.776,0,0,0,1.3.7l5.014-4.76a.558.558,0,0,1,.386-.154H23.136a3.536,3.536,0,0,0,3.532-3.532V87.605a.442.442,0,0,0-.441-.441Z" transform="translate(0 -72.743)" fill="#4267b2" stroke="#4267b2" stroke-width="0.5"/>
      </g>
    </g>
  </g>
</svg>
