<svg xmlns="http://www.w3.org/2000/svg" width="29.339" height="26.821" viewBox="0 0 29.339 26.821">
  <g id="svgexport-6_18_" data-name="svgexport-6 (18)" transform="translate(0 -20.882)">
    <g id="Group_3302" data-name="Group 3302" transform="translate(0 20.882)">
      <g id="Group_3301" data-name="Group 3301" transform="translate(0 0)">
        <path id="Path_275" data-name="Path 275" d="M219.733,333.382a1.508,1.508,0,0,0,0,3.016,1.508,1.508,0,0,0,0-3.016Z" transform="translate(-205.063 -314.535)" fill="#4267b2"/>
        <path id="Path_276" data-name="Path 276" d="M28.625,45.073a5.149,5.149,0,0,0,.012-5.211L19.192,23.506a5.2,5.2,0,0,0-9.035-.006L.7,39.874A5.224,5.224,0,0,0,5.224,47.7H24.09A5.194,5.194,0,0,0,28.625,45.073Zm-2.051-1.182a2.85,2.85,0,0,1-2.491,1.441H5.218a2.811,2.811,0,0,1-2.461-1.411,2.854,2.854,0,0,1-.006-2.877l9.457-16.369a2.84,2.84,0,0,1,4.933.006L26.593,41.05A2.816,2.816,0,0,1,26.574,43.891Z" transform="translate(0 -20.882)" fill="#4267b2"/>
        <path id="Path_277" data-name="Path 277" d="M218.889,157.219a1.64,1.64,0,0,0-1.164,1.646c.036.476.066.959.1,1.435.1,1.815.205,3.595.308,5.41a1.1,1.1,0,0,0,1.128,1.061,1.128,1.128,0,0,0,1.128-1.1c0-.374,0-.718.036-1.1.066-1.164.139-2.328.205-3.492.036-.754.1-1.508.139-2.262a1.862,1.862,0,0,0-.139-.754A1.512,1.512,0,0,0,218.889,157.219Z" transform="translate(-204.594 -148.956)" fill="#4267b2"/>
      </g>
    </g>
  </g>
</svg>
