<svg xmlns="http://www.w3.org/2000/svg" width="29" height="30" viewBox="0 0 29 30">
  <g id="Group_3036" data-name="Group 3036" transform="translate(0.001 -0.215)">
    <g id="Group_1362" data-name="Group 1362" transform="translate(0 0)">
      <ellipse id="Ellipse_99" data-name="Ellipse 99" cx="14.5" cy="15" rx="14.5" ry="15" transform="translate(-0.001 0.216)" fill="#4267b2"/>
    </g>
    <path id="Icon_feather-twitter" data-name="Icon feather-twitter" d="M18.478,4.493a8.412,8.412,0,0,1-2.423,1.181A3.457,3.457,0,0,0,9.989,7.988V8.76a8.227,8.227,0,0,1-6.946-3.5S-.043,12.21,6.9,15.3A8.983,8.983,0,0,1,1.5,16.84c6.946,3.859,15.435,0,15.435-8.875a3.472,3.472,0,0,0-.062-.641A5.958,5.958,0,0,0,18.478,4.493Z" transform="translate(4.712 3.476)" fill="#fff"/>
  </g>
</svg>
