<svg xmlns="http://www.w3.org/2000/svg" xmlns:xlink="http://www.w3.org/1999/xlink" width="181.134" height="152.586" viewBox="0 0 181.134 152.586">
  <defs>
    <linearGradient id="linear-gradient" x1="0.5" x2="0.5" y2="1" gradientUnits="objectBoundingBox">
      <stop offset="0" stop-color="#4267b2"/>
      <stop offset="1" stop-color="#2e487d"/>
    </linearGradient>
  </defs>
  <g id="svgexport-6_23_" data-name="svgexport-6 (23)" transform="translate(0 -40.348)">
    <g id="Group_3401" data-name="Group 3401" transform="translate(0 40.348)">
      <path id="Path_288" data-name="Path 288" d="M179.107,40.686a3.538,3.538,0,0,0-3.759.467L126.907,81.02a3.538,3.538,0,0,0-.737,4.63l1.292,2.031-.423.1a14.921,14.921,0,0,1-10.784-1.419,23.825,23.825,0,0,0-22.67-.221l-.791-.438a23.829,23.829,0,0,0-23.137-.028,16.942,16.942,0,0,1-11.1,1.826l-4.282-.765.693-1.091a3.538,3.538,0,0,0-.737-4.63L5.786,41.154A3.538,3.538,0,0,0,0,43.886V127.41a3.537,3.537,0,0,0,1.735,3.044l15.024,8.9a3.537,3.537,0,0,0,4.788-1.146l.155-.243,6.956,5.651A11.691,11.691,0,0,0,39.84,158.261a11.681,11.681,0,0,0,11.551,11.556,11.7,11.7,0,0,0,11.557,11.562,11.711,11.711,0,0,0,19.986,8.131l4.942-4.942c.184-.184.358-.375.528-.568l.516.516a11.705,11.705,0,0,0,19.489-4.9,11.7,11.7,0,0,0,16.014-9.047,11.715,11.715,0,0,0,10.04-3.291,11.627,11.627,0,0,0,3.426-8.136,11.7,11.7,0,0,0,10.721-16.048l10.716-5.294.261.411a3.537,3.537,0,0,0,4.788,1.146l15.024-8.9a3.538,3.538,0,0,0,1.735-3.044V43.886a3.538,3.538,0,0,0-2.027-3.2ZM7.076,125.393V51.379L47.314,84.494l-29.9,47.023Zm28.275,21.168a4.6,4.6,0,0,1,1.357-3.277l3.814-3.814a4.634,4.634,0,0,1,6.555,6.551l-3.816,3.816,0,0a4.633,4.633,0,0,1-7.907-3.28Zm12.913,8.281h0l8.57-8.57a4.634,4.634,0,1,1,6.553,6.553l-8.57,8.57a4.634,4.634,0,0,1-6.554-6.552Zm10.2,14.832a4.6,4.6,0,0,1,1.357-3.277l8.57-8.57h0a4.634,4.634,0,0,1,6.552,6.554l-8.57,8.57a4.633,4.633,0,0,1-7.91-3.276Zm24.409,9.891-4.942,4.942a4.634,4.634,0,0,1-6.553-6.553l4.943-4.943a4.634,4.634,0,0,1,6.552,6.554Zm58.144-28.85a4.633,4.633,0,0,1-6.553,0L108.319,124.57a3.538,3.538,0,1,0-5,5l26.143,26.144a4.634,4.634,0,0,1-6.553,6.553L100.632,140a3.538,3.538,0,0,0-5,5l20.5,20.5a4.634,4.634,0,0,1-6.553,6.553S93.8,156.418,93.374,156.245a3.538,3.538,0,0,0-3.833,5.78l10.94,10.94a4.634,4.634,0,0,1-6.559,6.547l-2.638-2.638a11.681,11.681,0,0,0-8.578-11.869,11.7,11.7,0,0,0-10.895-15.6,11.708,11.708,0,0,0-16.9-10.351,11.714,11.714,0,0,0-19.393-4.585l-3.092,3.092-6.9-5.608L50.168,93.2l7.141,1.276A24.009,24.009,0,0,0,73.066,91.88a16.776,16.776,0,0,1,12.747-1.444L74.154,96.885a13.152,13.152,0,0,0,10.885,23.86l23.84-8.722,32.138,32.138a4.633,4.633,0,0,1,0,6.554Zm3.209-13.351-31.941-31.94a3.536,3.536,0,0,0-3.716-.818v0l-25.96,9.5a6.076,6.076,0,0,1-7.089-2.256,6.077,6.077,0,0,1,2.06-8.768l18.964-10.49a16.792,16.792,0,0,1,16.3-.02,21.977,21.977,0,0,0,15.883,2.09l2.74-.674,24.04,37.807Zm29.834-11.97-10.34,6.124-29.9-47.023,40.239-33.116Z" transform="translate(0 -40.348)" fill="url(#linear-gradient)"/>
    </g>
  </g>
</svg>
