<svg xmlns="http://www.w3.org/2000/svg" width="29" height="30" viewBox="0 0 29 30">
  <g id="Group_3035" data-name="Group 3035" transform="translate(0 -0.215)">
    <g id="Group_1361" data-name="Group 1361" transform="translate(0 0)">
      <ellipse id="Ellipse_98" data-name="Ellipse 98" cx="14.5" cy="15" rx="14.5" ry="15" transform="translate(0 0.216)" fill="#4267b2"/>
    </g>
    <path id="Icon_ionic-logo-youtube" data-name="Icon ionic-logo-youtube" d="M13.408,6.736a2.049,2.049,0,0,0-1.951-2.141C10,4.526,8.507,4.5,6.986,4.5H6.511c-1.519,0-3.011.026-4.471.095A2.054,2.054,0,0,0,.092,6.741C.026,7.679,0,8.618,0,9.556s.026,1.877.09,2.818a2.056,2.056,0,0,0,1.948,2.149c1.534.071,3.108.1,4.708.1s3.172-.026,4.708-.1a2.057,2.057,0,0,0,1.951-2.149c.063-.941.092-1.88.09-2.821S13.471,7.677,13.408,6.736ZM5.457,12.143V6.962L9.28,9.551Z" transform="translate(8.451 5.593)" fill="#fff"/>
  </g>
</svg>
